<mxfile host="app.diagrams.net" modified="2023-01-19T16:20:48.076Z" agent="5.0 (Windows NT 10.0; Win64; x64) AppleWebKit/537.36 (KHTML, like Gecko) Chrome/109.0.0.0 Safari/537.36" version="20.8.5" etag="hHEdf6ZKhXLK4q5lK3xf" type="github">
  <diagram id="sGOMDRnRXvcwWbzX-Yh_" name="Страница 1">
    <mxGraphModel dx="1434" dy="800" grid="1" gridSize="10" guides="1" tooltips="1" connect="1" arrows="1" fold="1" page="1" pageScale="1" pageWidth="827" pageHeight="1169" math="0" shadow="0">
      <root>
        <mxCell id="0" />
        <mxCell id="1" parent="0" />
        <mxCell id="WGdRBpb6wyZgviv0EJ4r-3" value="&amp;lt;&amp;lt;device&amp;gt;&amp;gt;&lt;br&gt;&lt;div style=&quot;&quot;&gt;&lt;span style=&quot;background-color: initial;&quot;&gt;Веб-сервер&lt;/span&gt;&lt;/div&gt;" style="verticalAlign=top;align=center;shape=cube;size=10;direction=south;fontStyle=0;html=1;boundedLbl=1;spacingLeft=5;" vertex="1" parent="1">
          <mxGeometry x="440" y="240" width="200" height="420" as="geometry" />
        </mxCell>
        <mxCell id="WGdRBpb6wyZgviv0EJ4r-4" value="&amp;lt;&amp;lt;execution env&amp;gt;&amp;gt;&lt;br&gt;Веб-сервер Apache" style="verticalAlign=top;align=center;shape=cube;size=10;direction=south;html=1;boundedLbl=1;spacingLeft=5;" vertex="1" parent="WGdRBpb6wyZgviv0EJ4r-3">
          <mxGeometry width="170" height="130" relative="1" as="geometry">
            <mxPoint x="10" y="50" as="offset" />
          </mxGeometry>
        </mxCell>
        <mxCell id="WGdRBpb6wyZgviv0EJ4r-5" value="&amp;lt;&amp;lt;execution env&amp;gt;&amp;gt;&lt;br&gt;PHP 8.1" style="verticalAlign=top;align=center;shape=cube;size=10;direction=south;html=1;boundedLbl=1;spacingLeft=5;" vertex="1" parent="WGdRBpb6wyZgviv0EJ4r-3">
          <mxGeometry x="10" y="190" width="170" height="120" as="geometry" />
        </mxCell>
        <mxCell id="WGdRBpb6wyZgviv0EJ4r-6" value="&amp;lt;&amp;lt;artifact&amp;gt;&amp;gt;&lt;br&gt;&lt;b&gt;index.php&lt;/b&gt;" style="html=1;align=center;verticalAlign=middle;dashed=0;" vertex="1" parent="WGdRBpb6wyZgviv0EJ4r-3">
          <mxGeometry x="20" y="247.288" width="140" height="50.711999999999996" as="geometry" />
        </mxCell>
        <mxCell id="WGdRBpb6wyZgviv0EJ4r-7" value="&amp;lt;&amp;lt;artifact&amp;gt;&amp;gt;&lt;br&gt;&lt;b&gt;index.html&lt;br&gt;&lt;/b&gt;" style="html=1;align=center;verticalAlign=middle;dashed=0;" vertex="1" parent="WGdRBpb6wyZgviv0EJ4r-3">
          <mxGeometry x="20" y="100" width="140" height="30" as="geometry" />
        </mxCell>
        <mxCell id="WGdRBpb6wyZgviv0EJ4r-8" value="&amp;lt;&amp;lt;artifact&amp;gt;&amp;gt;&lt;br&gt;&lt;b&gt;script.js&lt;br&gt;&lt;/b&gt;" style="html=1;align=center;verticalAlign=middle;dashed=0;" vertex="1" parent="WGdRBpb6wyZgviv0EJ4r-3">
          <mxGeometry x="20" y="138" width="140" height="30" as="geometry" />
        </mxCell>
        <mxCell id="WGdRBpb6wyZgviv0EJ4r-9" value="&amp;lt;&amp;lt;execution env&amp;gt;&amp;gt;&lt;br&gt;СУБД MySQL" style="verticalAlign=top;align=center;shape=cube;size=10;direction=south;html=1;boundedLbl=1;spacingLeft=5;" vertex="1" parent="WGdRBpb6wyZgviv0EJ4r-3">
          <mxGeometry x="10" y="320" width="170" height="90" as="geometry" />
        </mxCell>
        <mxCell id="WGdRBpb6wyZgviv0EJ4r-10" value="&amp;lt;&amp;lt;artifact&amp;gt;&amp;gt;&lt;br&gt;&lt;b&gt;migrations.sql&lt;br&gt;&lt;/b&gt;" style="html=1;align=center;verticalAlign=middle;dashed=0;" vertex="1" parent="WGdRBpb6wyZgviv0EJ4r-3">
          <mxGeometry x="20" y="370" width="140" height="30" as="geometry" />
        </mxCell>
        <mxCell id="WGdRBpb6wyZgviv0EJ4r-11" value="" style="endArrow=none;startArrow=none;endFill=0;startFill=0;endSize=8;html=1;verticalAlign=bottom;labelBackgroundColor=none;strokeWidth=3;rounded=0;exitX=0.5;exitY=1;exitDx=0;exitDy=0;entryX=0.01;entryY=0.526;entryDx=0;entryDy=0;entryPerimeter=0;" edge="1" parent="WGdRBpb6wyZgviv0EJ4r-3" source="WGdRBpb6wyZgviv0EJ4r-6" target="WGdRBpb6wyZgviv0EJ4r-9">
          <mxGeometry width="160" relative="1" as="geometry">
            <mxPoint x="-70" y="92" as="sourcePoint" />
            <mxPoint x="20" y="130" as="targetPoint" />
          </mxGeometry>
        </mxCell>
        <mxCell id="WGdRBpb6wyZgviv0EJ4r-12" value="" style="endArrow=none;startArrow=none;endFill=0;startFill=0;endSize=8;html=1;verticalAlign=bottom;labelBackgroundColor=none;strokeWidth=3;rounded=0;exitX=0.5;exitY=1;exitDx=0;exitDy=0;entryX=-0.001;entryY=0.531;entryDx=0;entryDy=0;entryPerimeter=0;" edge="1" parent="WGdRBpb6wyZgviv0EJ4r-3" source="WGdRBpb6wyZgviv0EJ4r-8" target="WGdRBpb6wyZgviv0EJ4r-5">
          <mxGeometry width="160" relative="1" as="geometry">
            <mxPoint x="100" y="308" as="sourcePoint" />
            <mxPoint x="110" y="330" as="targetPoint" />
          </mxGeometry>
        </mxCell>
        <mxCell id="WGdRBpb6wyZgviv0EJ4r-13" value="&amp;lt;&amp;lt;device&amp;gt;&amp;gt;&lt;br&gt;&lt;div style=&quot;&quot;&gt;&lt;span style=&quot;background-color: initial;&quot;&gt;Клиентский девайс&lt;/span&gt;&lt;/div&gt;" style="verticalAlign=top;align=center;shape=cube;size=10;direction=south;fontStyle=0;html=1;boundedLbl=1;spacingLeft=5;" vertex="1" parent="1">
          <mxGeometry x="160" y="240" width="200" height="140" as="geometry" />
        </mxCell>
        <mxCell id="WGdRBpb6wyZgviv0EJ4r-14" value="&amp;lt;&amp;lt;execution env&amp;gt;&amp;gt;&lt;br&gt;Браузер" style="verticalAlign=top;align=center;shape=cube;size=10;direction=south;html=1;boundedLbl=1;spacingLeft=5;" vertex="1" parent="WGdRBpb6wyZgviv0EJ4r-13">
          <mxGeometry width="170" height="60" relative="1" as="geometry">
            <mxPoint x="10" y="57" as="offset" />
          </mxGeometry>
        </mxCell>
        <mxCell id="WGdRBpb6wyZgviv0EJ4r-15" value="" style="endArrow=none;startArrow=none;endFill=0;startFill=0;endSize=8;html=1;verticalAlign=bottom;labelBackgroundColor=none;strokeWidth=3;rounded=0;exitX=0;exitY=0;exitDx=25;exitDy=0;exitPerimeter=0;entryX=0;entryY=0;entryDx=70;entryDy=170;entryPerimeter=0;" edge="1" parent="1" source="WGdRBpb6wyZgviv0EJ4r-14" target="WGdRBpb6wyZgviv0EJ4r-4">
          <mxGeometry width="160" relative="1" as="geometry">
            <mxPoint x="550" y="600" as="sourcePoint" />
            <mxPoint x="710" y="600" as="targetPoint" />
          </mxGeometry>
        </mxCell>
      </root>
    </mxGraphModel>
  </diagram>
</mxfile>
